<svg xmlns="http://www.w3.org/2000/svg" xmlns:xlink="http://www.w3.org/1999/xlink" width="1040" height="667.88"><rect width="1040" height="667.88" rx="5" ry="5" class="a"/><svg y="0%" x="0%"><circle cx="20" cy="20" r="6" fill="#ff5f58"/><circle cx="40" cy="20" r="6" fill="#ffbd2e"/><circle cx="60" cy="20" r="6" fill="#18c132"/></svg><svg height="607.88" viewBox="0 0 100 60.788" width="1000" x="15" xmlns="http://www.w3.org/2000/svg" xmlns:xlink="http://www.w3.org/1999/xlink" y="50"><style>@keyframes n{0%{transform:translateX(0)}1%{transform:translateX(-100px)}12.5%{transform:translateX(-200px)}21.1%{transform:translateX(-400px)}31.2%{transform:translateX(-500px)}31.3%{transform:translateX(-600px)}37%{transform:translateX(-700px)}40.2%{transform:translateX(-800px)}43.3%{transform:translateX(-900px)}46.5%{transform:translateX(-1000px)}59.7%{transform:translateX(-1100px)}66.9%{transform:translateX(-1200px)}67%{transform:translateX(-1300px)}71.3%{transform:translateX(-1400px)}74.1%{transform:translateX(-1500px)}77%{transform:translateX(-1600px)}79.9%{transform:translateX(-1700px)}to{transform:translateX(-1800px)}}.a{fill:#282d35}.f{fill:#a8cc8c;font-weight:700;white-space:pre}.g,.h,.i,.j,.k{fill:#b9c0cb;white-space:pre}.h,.i,.j,.k{fill:#66c2cd}.i,.j,.k{fill:#a8cc8c}.j,.k{fill:#dbab79}.k{fill:#b9c0cb;font-weight:700}</style><g font-family="Monaco,Consolas,Menlo,'Bitstream Vera Sans Mono','Powerline Symbols',monospace" font-size="1.67"><defs><symbol id="1"><text y="1.67" class="f">🔎</text><text x="3.006" y="1.67" class="f">data-aggregator-mcp</text><text x="23.046" y="1.67" class="f">—</text><text x="25.05" y="1.67" class="f">stdio</text><text x="31.062" y="1.67" class="f">MCP</text><text x="35.07" y="1.67" class="f">demo</text></symbol><symbol id="2"><text y="1.67" class="g">$</text><text x="2.004" y="1.67" class="g">uvx</text><text x="6.012" y="1.67" class="g">data-aggregator-mcp</text><text x="27.054" y="1.67" class="g">#</text><text x="29.058" y="1.67" class="g">boot</text><text x="34.068" y="1.67" class="g">stdio</text><text x="40.08" y="1.67" class="g">server</text></symbol><symbol id="3"><text y="1.67" class="h">→</text><text x="2.004" y="1.67" class="g">initialize</text></symbol><symbol id="4"><text y="1.67" class="i">←</text><text x="2.004" y="1.67" class="g">serverInfo:</text><text x="14.028" y="1.67" class="g">data-aggregator-mcp</text><text x="34.068" y="1.67" class="g">v0.11.0</text></symbol><symbol id="5"><text y="1.67" class="h">→</text><text x="2.004" y="1.67" class="g">tools/list</text></symbol><symbol id="6"><text y="1.67" class="i">←</text><text x="2.004" y="1.67" class="g">4</text><text x="4.008" y="1.67" class="g">tools</text><text x="10.02" y="1.67" class="g">registered:</text></symbol><symbol id="7"><text x="2.004" y="1.67" class="j">•</text><text x="4.008" y="1.67" class="k">search</text><text x="11.022" y="1.67" class="g">—</text><text x="13.026" y="1.67" class="g">fan</text><text x="17.034" y="1.67" class="g">out</text><text x="21.042" y="1.67" class="g">across</text><text x="28.056" y="1.67" class="g">every</text><text x="34.068" y="1.67" class="g">source,</text><text x="42.084" y="1.67" class="g">deduped</text><text x="50.1" y="1.67" class="g">+</text><text x="52.104" y="1.67" class="g">taxa-normalized</text></symbol><symbol id="8"><text x="2.004" y="1.67" class="j">•</text><text x="4.008" y="1.67" class="k">resolve</text><text x="12.024" y="1.67" class="g">—</text><text x="14.028" y="1.67" class="g">full</text><text x="19.038" y="1.67" class="g">record:</text><text x="27.054" y="1.67" class="g">files,</text><text x="34.068" y="1.67" class="g">links,</text><text x="41.082" y="1.67" class="g">citation,</text><text x="51.102" y="1.67" class="g">access,</text><text x="59.118" y="1.67" class="g">full</text><text x="64.128" y="1.67" class="g">text</text></symbol><symbol id="9"><text x="2.004" y="1.67" class="j">•</text><text x="4.008" y="1.67" class="k">fetch</text><text x="10.02" y="1.67" class="g">—</text><text x="12.024" y="1.67" class="g">stream</text><text x="19.038" y="1.67" class="g">to</text><text x="22.044" y="1.67" class="g">disk,</text><text x="28.056" y="1.67" class="g">md5-verified,</text><text x="42.084" y="1.67" class="g">optional</text><text x="51.102" y="1.67" class="g">archive</text><text x="59.118" y="1.67" class="g">extract</text></symbol><symbol id="10"><text x="2.004" y="1.67" class="j">•</text><text x="4.008" y="1.67" class="k">list_sources</text><text x="17.034" y="1.67" class="g">—</text><text x="19.038" y="1.67" class="g">wired</text><text x="25.05" y="1.67" class="g">sources</text><text x="33.066" y="1.67" class="g">+</text><text x="35.07" y="1.67" class="g">capabilities</text></symbol><symbol id="11"><text y="1.67" class="g">$</text><text x="2.004" y="1.67" class="g">#</text><text x="4.008" y="1.67" class="g">tools/call</text><text x="15.03" y="1.67" class="g">list_sources</text></symbol><symbol id="12"><text y="1.67" class="h">→</text><text x="2.004" y="1.67" class="g">tools/call</text><text x="14.028" y="1.67" class="g">{&quot;name&quot;:</text><text x="23.046" y="1.67" class="g">&quot;list_sources&quot;}</text></symbol><symbol id="13"><text y="1.67" class="i">←</text><text x="2.004" y="1.67" class="g">4</text><text x="4.008" y="1.67" class="g">sources:</text></symbol><symbol id="14"><text x="2.004" y="1.67" class="h">zenodo</text><text x="14.028" y="1.67" class="g">archives</text><text x="25.05" y="1.67" class="i">fetch</text><text x="32.064" y="1.67" class="g">zenodo:7654321</text></symbol><symbol id="15"><text x="2.004" y="1.67" class="h">datacite</text><text x="14.028" y="1.67" class="g">archives</text><text x="25.05" y="1.67" class="j">per-repo</text><text x="35.07" y="1.67" class="g">datacite:10.5061/dryad.x</text></symbol><symbol id="16"><text x="2.004" y="1.67" class="h">omics</text><text x="14.028" y="1.67" class="g">omics</text><text x="25.05" y="1.67" class="j">per-sub-source</text><text x="41.082" y="1.67" class="g">sra:SRX079566</text><text x="55.11" y="1.67" class="g">|</text><text x="57.114" y="1.67" class="g">geo:GSE10072</text><text x="70.14" y="1.67" class="g">|</text><text x="72.144" y="1.67" class="g">bioproject:PRJNA231221</text></symbol><symbol id="17"><text x="2.004" y="1.67" class="h">literature</text><text x="14.028" y="1.67" class="g">literature</text><text x="25.05" y="1.67" class="j">open-access</text><text x="37.074" y="1.67" class="j">only</text><text x="43.086" y="1.67" class="g">pubmed:23066504</text><text x="59.118" y="1.67" class="g">|</text><text x="61.122" y="1.67" class="g">openaire:&lt;id&gt;</text></symbol><symbol id="a"><path fill="transparent" d="M0 0h100v29H0z"/></symbol><symbol id="b"><path fill="#6f7683" d="M0 0h1.102v2.171H0z"/></symbol></defs><path class="a" d="M0 0h100v60.788H0z"/><g style="animation-duration:6.96538s;animation-iteration-count:infinite;animation-name:n;animation-timing-function:steps(1,end)"><svg width="1900"><svg><use xlink:href="#a"/><use xlink:href="#b" x="-.004"/></svg><svg x="100"><use xlink:href="#a"/><use xlink:href="#b" x="-.004" y="4.317"/><use xlink:href="#1"/></svg><svg x="200"><use xlink:href="#a"/><use xlink:href="#b" x="-.004" y="6.488"/><use xlink:href="#1"/><use xlink:href="#2" y="4.342"/></svg><svg x="300"><use xlink:href="#a"/><use xlink:href="#b" x="-.004" y="8.659"/><use xlink:href="#1"/><use xlink:href="#2" y="4.342"/><use xlink:href="#3" y="6.513"/></svg><svg x="400"><use xlink:href="#a"/><use xlink:href="#b" x="-.004" y="10.83"/><use xlink:href="#1"/><use xlink:href="#2" y="4.342"/><use xlink:href="#3" y="6.513"/><use xlink:href="#4" y="8.684"/></svg><svg x="500"><use xlink:href="#a"/><use xlink:href="#b" x="-.004" y="15.172"/><use xlink:href="#1"/><use xlink:href="#2" y="4.342"/><use xlink:href="#3" y="6.513"/><use xlink:href="#4" y="8.684"/><use xlink:href="#5" y="13.026"/></svg><svg x="600"><use xlink:href="#a"/><use xlink:href="#b" x="-.004" y="17.343"/><use xlink:href="#1"/><use xlink:href="#2" y="4.342"/><use xlink:href="#3" y="6.513"/><use xlink:href="#4" y="8.684"/><use xlink:href="#5" y="13.026"/><use xlink:href="#6" y="15.197"/></svg><svg x="700"><use xlink:href="#a"/><use xlink:href="#b" x="-.004" y="19.514"/><use xlink:href="#1"/><use xlink:href="#2" y="4.342"/><use xlink:href="#3" y="6.513"/><use xlink:href="#4" y="8.684"/><use xlink:href="#5" y="13.026"/><use xlink:href="#6" y="15.197"/><use xlink:href="#7" y="17.368"/></svg><svg x="800"><use xlink:href="#a"/><use xlink:href="#b" x="-.004" y="21.685"/><use xlink:href="#1"/><use xlink:href="#2" y="4.342"/><use xlink:href="#3" y="6.513"/><use xlink:href="#4" y="8.684"/><use xlink:href="#5" y="13.026"/><use xlink:href="#6" y="15.197"/><use xlink:href="#7" y="17.368"/><use xlink:href="#8" y="19.539"/></svg><svg x="900"><use xlink:href="#a"/><use xlink:href="#b" x="-.004" y="23.856"/><use xlink:href="#1"/><use xlink:href="#2" y="4.342"/><use xlink:href="#3" y="6.513"/><use xlink:href="#4" y="8.684"/><use xlink:href="#5" y="13.026"/><use xlink:href="#6" y="15.197"/><use xlink:href="#7" y="17.368"/><use xlink:href="#8" y="19.539"/><use xlink:href="#9" y="21.71"/></svg><svg x="1000"><use xlink:href="#a"/><use xlink:href="#b" x="-.004" y="26.027"/><use xlink:href="#1"/><use xlink:href="#2" y="4.342"/><use xlink:href="#3" y="6.513"/><use xlink:href="#4" y="8.684"/><use xlink:href="#5" y="13.026"/><use xlink:href="#6" y="15.197"/><use xlink:href="#7" y="17.368"/><use xlink:href="#8" y="19.539"/><use xlink:href="#9" y="21.71"/><use xlink:href="#10" y="23.881"/></svg><svg x="1100"><use xlink:href="#a"/><use xlink:href="#b" x="-.004" y="30.369"/><use xlink:href="#1"/><use xlink:href="#2" y="4.342"/><use xlink:href="#3" y="6.513"/><use xlink:href="#4" y="8.684"/><use xlink:href="#5" y="13.026"/><use xlink:href="#6" y="15.197"/><use xlink:href="#7" y="17.368"/><use xlink:href="#8" y="19.539"/><use xlink:href="#9" y="21.71"/><use xlink:href="#10" y="23.881"/><use xlink:href="#11" y="28.223"/></svg><svg x="1200"><use xlink:href="#a"/><use xlink:href="#b" x="-.004" y="32.54"/><use xlink:href="#1"/><use xlink:href="#2" y="4.342"/><use xlink:href="#3" y="6.513"/><use xlink:href="#4" y="8.684"/><use xlink:href="#5" y="13.026"/><use xlink:href="#6" y="15.197"/><use xlink:href="#7" y="17.368"/><use xlink:href="#8" y="19.539"/><use xlink:href="#9" y="21.71"/><use xlink:href="#10" y="23.881"/><use xlink:href="#11" y="28.223"/><use xlink:href="#12" y="30.394"/></svg><svg x="1300"><use xlink:href="#a"/><use xlink:href="#b" x="-.004" y="34.711"/><use xlink:href="#1"/><use xlink:href="#2" y="4.342"/><use xlink:href="#3" y="6.513"/><use xlink:href="#4" y="8.684"/><use xlink:href="#5" y="13.026"/><use xlink:href="#6" y="15.197"/><use xlink:href="#7" y="17.368"/><use xlink:href="#8" y="19.539"/><use xlink:href="#9" y="21.71"/><use xlink:href="#10" y="23.881"/><use xlink:href="#11" y="28.223"/><use xlink:href="#12" y="30.394"/><use xlink:href="#13" y="32.565"/></svg><svg x="1400"><use xlink:href="#a"/><use xlink:href="#b" x="-.004" y="36.882"/><use xlink:href="#1"/><use xlink:href="#2" y="4.342"/><use xlink:href="#3" y="6.513"/><use xlink:href="#4" y="8.684"/><use xlink:href="#5" y="13.026"/><use xlink:href="#6" y="15.197"/><use xlink:href="#7" y="17.368"/><use xlink:href="#8" y="19.539"/><use xlink:href="#9" y="21.71"/><use xlink:href="#10" y="23.881"/><use xlink:href="#11" y="28.223"/><use xlink:href="#12" y="30.394"/><use xlink:href="#13" y="32.565"/><use xlink:href="#14" y="34.736"/></svg><svg x="1500"><use xlink:href="#a"/><use xlink:href="#b" x="-.004" y="39.053"/><use xlink:href="#1"/><use xlink:href="#2" y="4.342"/><use xlink:href="#3" y="6.513"/><use xlink:href="#4" y="8.684"/><use xlink:href="#5" y="13.026"/><use xlink:href="#6" y="15.197"/><use xlink:href="#7" y="17.368"/><use xlink:href="#8" y="19.539"/><use xlink:href="#9" y="21.71"/><use xlink:href="#10" y="23.881"/><use xlink:href="#11" y="28.223"/><use xlink:href="#12" y="30.394"/><use xlink:href="#13" y="32.565"/><use xlink:href="#14" y="34.736"/><use xlink:href="#15" y="36.907"/></svg><svg x="1600"><use xlink:href="#a"/><use xlink:href="#b" x="-.004" y="41.224"/><use xlink:href="#1"/><use xlink:href="#2" y="4.342"/><use xlink:href="#3" y="6.513"/><use xlink:href="#4" y="8.684"/><use xlink:href="#5" y="13.026"/><use xlink:href="#6" y="15.197"/><use xlink:href="#7" y="17.368"/><use xlink:href="#8" y="19.539"/><use xlink:href="#9" y="21.71"/><use xlink:href="#10" y="23.881"/><use xlink:href="#11" y="28.223"/><use xlink:href="#12" y="30.394"/><use xlink:href="#13" y="32.565"/><use xlink:href="#14" y="34.736"/><use xlink:href="#15" y="36.907"/><use xlink:href="#16" y="39.078"/></svg><svg x="1700"><use xlink:href="#a"/><use xlink:href="#b" x="-.004" y="43.395"/><use xlink:href="#1"/><use xlink:href="#2" y="4.342"/><use xlink:href="#3" y="6.513"/><use xlink:href="#4" y="8.684"/><use xlink:href="#5" y="13.026"/><use xlink:href="#6" y="15.197"/><use xlink:href="#7" y="17.368"/><use xlink:href="#8" y="19.539"/><use xlink:href="#9" y="21.71"/><use xlink:href="#10" y="23.881"/><use xlink:href="#11" y="28.223"/><use xlink:href="#12" y="30.394"/><use xlink:href="#13" y="32.565"/><use xlink:href="#14" y="34.736"/><use xlink:href="#15" y="36.907"/><use xlink:href="#16" y="39.078"/><use xlink:href="#17" y="41.249"/></svg><svg x="1800"><use xlink:href="#a"/><use xlink:href="#b" x="-.004" y="47.737"/><use xlink:href="#1"/><use xlink:href="#2" y="4.342"/><use xlink:href="#3" y="6.513"/><use xlink:href="#4" y="8.684"/><use xlink:href="#5" y="13.026"/><use xlink:href="#6" y="15.197"/><use xlink:href="#7" y="17.368"/><use xlink:href="#8" y="19.539"/><use xlink:href="#9" y="21.71"/><use xlink:href="#10" y="23.881"/><use xlink:href="#11" y="28.223"/><use xlink:href="#12" y="30.394"/><use xlink:href="#13" y="32.565"/><use xlink:href="#14" y="34.736"/><use xlink:href="#15" y="36.907"/><use xlink:href="#16" y="39.078"/><use xlink:href="#17" y="41.249"/><text y="47.261" class="f">done.</text></svg></svg></g></g></svg></svg>