<svg xmlns="http://www.w3.org/2000/svg" xmlns:xlink="http://www.w3.org/1999/xlink" width="960" height="798.14"><rect width="960" height="798.14" rx="5" ry="5" class="a"/><svg y="0%" x="0%"><circle cx="20" cy="20" r="6" fill="#ff5f58"/><circle cx="40" cy="20" r="6" fill="#ffbd2e"/><circle cx="60" cy="20" r="6" fill="#18c132"/></svg><svg height="738.14" viewBox="0 0 92 73.814" width="920" x="15" xmlns="http://www.w3.org/2000/svg" xmlns:xlink="http://www.w3.org/1999/xlink" y="50"><style>@keyframes p{0%{transform:translateX(0)}.2%{transform:translateX(-1012px)}2%{transform:translateX(-1104px)}2.1%{transform:translateX(-1288px)}2.2%{transform:translateX(-1380px)}2.8%{transform:translateX(-2024px)}3.4%{transform:translateX(-2116px)}3.9%{transform:translateX(-2208px)}4.2%{transform:translateX(-2300px)}4.7%{transform:translateX(-2576px)}4.8%{transform:translateX(-2668px)}6.8%{transform:translateX(-2760px)}8.8%{transform:translateX(-2852px)}9.3%{transform:translateX(-3312px)}9.6%{transform:translateX(-3404px)}17.7%{transform:translateX(-3496px)}23.8%{transform:translateX(-3680px)}30.9%{transform:translateX(-3864px)}35%{transform:translateX(-3956px)}37.2%{transform:translateX(-4048px)}39.4%{transform:translateX(-4140px)}41.6%{transform:translateX(-4232px)}43.9%{transform:translateX(-4324px)}46.1%{transform:translateX(-4416px)}55.4%{transform:translateX(-4508px)}60.5%{transform:translateX(-4692px)}63.5%{transform:translateX(-4784px)}65.6%{transform:translateX(-4876px)}67.6%{transform:translateX(-4968px)}69.6%{transform:translateX(-5060px)}71.6%{transform:translateX(-5152px)}73.7%{transform:translateX(-5244px)}75.7%{transform:translateX(-5336px)}77.7%{transform:translateX(-5428px)}79.7%{transform:translateX(-5520px)}81.8%{transform:translateX(-5612px)}83.8%{transform:translateX(-5704px)}85.8%{transform:translateX(-5796px)}to{transform:translateX(-5888px)}}.a{fill:#282d35}.f,.g{fill:#b9bfca;white-space:pre}.g{fill:#b9c0cb}.i{fill:#a8cc8c;font-weight:700}.i,.j,.k,.l,.m{white-space:pre}.j{fill:#b9c0cb;font-weight:700}.k,.l,.m{fill:#66c2cd}.l,.m{fill:#a8cc8c}.m{fill:#dbab79}</style><g font-family="Monaco,Consolas,Menlo,'Bitstream Vera Sans Mono','Powerline Symbols',monospace" font-size="1.67"><defs><symbol id="1"><text y="1.67" class="f">⠋</text><text x="2.004" y="1.67" class="g">Resolving</text><text x="12.024" y="1.67" class="g">dependencies...</text></symbol><symbol id="2"><text y="1.67" class="f">⠙</text><text x="2.004" y="1.67" class="g">Resolving</text><text x="12.024" y="1.67" class="g">dependencies...</text></symbol><symbol id="3"><text y="1.67" class="f">⠙</text><text x="2.004" y="1.67" class="g">data-aggregator-mcp==0.39.1</text></symbol><symbol id="4"><text y="1.67" class="f">⠙</text><text x="2.004" y="1.67" class="g">Preparing</text><text x="12.024" y="1.67" class="g">packages...</text><text x="24.048" y="1.67" class="g">(0/1)</text></symbol><symbol id="5"><text x="3.006" y="1.67" style="white-space:pre" fill="#66c2cd" font-weight="700">Building</text><text x="12.024" y="1.67" class="g">data-aggregator-mcp</text><text x="32.064" y="1.67" class="g">@</text><text x="34.068" y="1.67" class="g">file:///home/mjarnold/data-aggregator-mcp</text></symbol><symbol id="6"><text y="1.67" class="f">⠸</text><text x="2.004" y="1.67" class="g">Preparing</text><text x="12.024" y="1.67" class="g">packages...</text><text x="24.048" y="1.67" class="g">(0/1)</text></symbol><symbol id="7"><text x="6.012" y="1.67" class="i">Built</text><text x="12.024" y="1.67" class="g">data-aggregator-mcp</text><text x="32.064" y="1.67" class="g">@</text><text x="34.068" y="1.67" class="g">file:///home/mjarnold/data-aggregator-mcp</text></symbol><symbol id="8"><text y="1.67" class="g">Uninstalled</text><text x="12.024" y="1.67" class="j">1</text><text x="14.028" y="1.67" class="j">package</text><text x="22.044" y="1.67" class="g">in</text><text x="25.05" y="1.67" class="g">1ms</text></symbol><symbol id="9"><text y="1.67" class="g">Installed</text><text x="10.02" y="1.67" class="j">1</text><text x="12.024" y="1.67" class="j">package</text><text x="20.04" y="1.67" class="g">in</text><text x="23.046" y="1.67" class="g">0.73ms</text></symbol><symbol id="10"><text y="1.67" class="i">🔎</text><text x="3.006" y="1.67" class="i">data-aggregator-mcp</text><text x="23.046" y="1.67" class="i">—</text><text x="25.05" y="1.67" class="i">stdio</text><text x="31.062" y="1.67" class="i">MCP</text><text x="35.07" y="1.67" class="i">demo</text></symbol><symbol id="11"><text y="1.67" class="g">$</text><text x="2.004" y="1.67" class="g">uvx</text><text x="6.012" y="1.67" class="g">data-aggregator-mcp</text><text x="27.054" y="1.67" class="g">#</text><text x="29.058" y="1.67" class="g">boot</text><text x="34.068" y="1.67" class="g">stdio</text><text x="40.08" y="1.67" class="g">server</text></symbol><symbol id="12"><text y="1.67" class="k">→</text><text x="2.004" y="1.67" class="g">initialize</text></symbol><symbol id="13"><text y="1.67" class="l">←</text><text x="2.004" y="1.67" class="g">serverInfo:</text><text x="14.028" y="1.67" class="g">data-aggregator-mcp</text><text x="34.068" y="1.67" class="g">v0.39.1</text></symbol><symbol id="14"><text y="1.67" class="k">→</text><text x="2.004" y="1.67" class="g">tools/list</text></symbol><symbol id="15"><text y="1.67" class="l">←</text><text x="2.004" y="1.67" class="g">6</text><text x="4.008" y="1.67" class="g">tools</text><text x="10.02" y="1.67" class="g">registered:</text></symbol><symbol id="16"><text x="2.004" y="1.67" class="m">•</text><text x="4.008" y="1.67" class="j">search</text><text x="11.022" y="1.67" class="g">—</text><text x="13.026" y="1.67" class="g">fan</text><text x="17.034" y="1.67" class="g">out</text><text x="21.042" y="1.67" class="g">across</text><text x="28.056" y="1.67" class="g">every</text><text x="34.068" y="1.67" class="g">source,</text><text x="42.084" y="1.67" class="g">deduped</text><text x="50.1" y="1.67" class="g">+</text><text x="52.104" y="1.67" class="g">taxa-normalized</text></symbol><symbol id="17"><text x="2.004" y="1.67" class="m">•</text><text x="4.008" y="1.67" class="j">resolve</text><text x="12.024" y="1.67" class="g">—</text><text x="14.028" y="1.67" class="g">full</text><text x="19.038" y="1.67" class="g">record:</text><text x="27.054" y="1.67" class="g">files,</text><text x="34.068" y="1.67" class="g">links,</text><text x="41.082" y="1.67" class="g">citation,</text><text x="51.102" y="1.67" class="g">access,</text><text x="59.118" y="1.67" class="g">full</text><text x="64.128" y="1.67" class="g">text</text></symbol><symbol id="18"><text x="2.004" y="1.67" class="m">•</text><text x="4.008" y="1.67" class="j">fetch</text><text x="10.02" y="1.67" class="g">—</text><text x="12.024" y="1.67" class="g">stream</text><text x="19.038" y="1.67" class="g">to</text><text x="22.044" y="1.67" class="g">disk,</text><text x="28.056" y="1.67" class="g">md5-verified,</text><text x="42.084" y="1.67" class="g">optional</text><text x="51.102" y="1.67" class="g">archive</text><text x="59.118" y="1.67" class="g">extract</text></symbol><symbol id="19"><text x="2.004" y="1.67" class="m">•</text><text x="4.008" y="1.67" class="j">operate</text><text x="12.024" y="1.67" class="g">—</text><text x="14.028" y="1.67" class="g">schema</text><text x="21.042" y="1.67" class="g">/</text><text x="23.046" y="1.67" class="g">preview</text><text x="31.062" y="1.67" class="g">/</text><text x="33.066" y="1.67" class="g">SQL</text><text x="37.074" y="1.67" class="g">over</text><text x="42.084" y="1.67" class="g">a</text><text x="44.088" y="1.67" class="g">remote</text><text x="51.102" y="1.67" class="g">table,</text><text x="58.116" y="1.67" class="g">no</text><text x="61.122" y="1.67" class="g">download</text></symbol><symbol id="20"><text x="2.004" y="1.67" class="m">•</text><text x="4.008" y="1.67" class="j">relate</text><text x="11.022" y="1.67" class="g">—</text><text x="13.026" y="1.67" class="g">how</text><text x="17.034" y="1.67" class="g">a</text><text x="19.038" y="1.67" class="g">set</text><text x="23.046" y="1.67" class="g">of</text><text x="26.052" y="1.67" class="g">records</text><text x="34.068" y="1.67" class="g">connect</text><text x="42.084" y="1.67" class="g">—</text><text x="44.088" y="1.67" class="g">shared</text><text x="51.102" y="1.67" class="g">id,</text><text x="55.11" y="1.67" class="g">link,</text><text x="61.122" y="1.67" class="g">lineage</text></symbol><symbol id="21"><text x="2.004" y="1.67" class="m">•</text><text x="4.008" y="1.67" class="j">list_sources</text><text x="17.034" y="1.67" class="g">—</text><text x="19.038" y="1.67" class="g">wired</text><text x="25.05" y="1.67" class="g">sources</text><text x="33.066" y="1.67" class="g">+</text><text x="35.07" y="1.67" class="g">capabilities</text></symbol><symbol id="22"><text y="1.67" class="g">$</text><text x="2.004" y="1.67" class="g">#</text><text x="4.008" y="1.67" class="g">tools/call</text><text x="15.03" y="1.67" class="g">list_sources</text></symbol><symbol id="23"><text y="1.67" class="k">→</text><text x="2.004" y="1.67" class="g">tools/call</text><text x="14.028" y="1.67" class="g">{&quot;name&quot;:</text><text x="23.046" y="1.67" class="g">&quot;list_sources&quot;}</text></symbol><symbol id="24"><text y="1.67" class="l">←</text><text x="2.004" y="1.67" class="g">12</text><text x="5.01" y="1.67" class="g">sources:</text></symbol><symbol id="25"><text x="2.004" y="1.67" class="k">zenodo</text><text x="14.028" y="1.67" class="g">archives</text><text x="25.05" y="1.67" class="l">fetch</text><text x="32.064" y="1.67" class="g">zenodo:7654321</text></symbol><symbol id="26"><text x="2.004" y="1.67" class="k">datacite</text><text x="14.028" y="1.67" class="g">archives</text><text x="25.05" y="1.67" class="m">per-repo</text><text x="35.07" y="1.67" class="g">datacite:10.5061/dryad.x</text></symbol><symbol id="27"><text x="2.004" y="1.67" class="k">omics</text><text x="14.028" y="1.67" class="g">omics</text><text x="25.05" y="1.67" class="m">per-sub-source</text><text x="41.082" y="1.67" class="g">sra:SRX079566</text><text x="55.11" y="1.67" class="g">|</text><text x="57.114" y="1.67" class="g">geo:GSE10072</text><text x="70.14" y="1.67" class="g">|</text><text x="72.144" y="1.67" class="g">bioproject:PRJNA2312</text></symbol><symbol id="28"><text y="1.67" class="g">21</text></symbol><symbol id="29"><text x="2.004" y="1.67" class="k">literature</text><text x="14.028" y="1.67" class="g">literature</text><text x="25.05" y="1.67" class="m">open-access</text><text x="37.074" y="1.67" class="m">only</text><text x="43.086" y="1.67" class="g">pubmed:23066504</text><text x="59.118" y="1.67" class="g">|</text><text x="61.122" y="1.67" class="g">openaire:&lt;id&gt;</text></symbol><symbol id="30"><text x="2.004" y="1.67" class="k">huggingface</text><text x="14.028" y="1.67" class="g">archives</text><text x="25.05" y="1.67" class="l">fetch</text><text x="32.064" y="1.67" class="g">hf:davidcechak/Arabidopsis_thaliana_DNA_v0</text></symbol><symbol id="31"><text x="2.004" y="1.67" class="k">dataone</text><text x="14.028" y="1.67" class="g">archives</text><text x="25.05" y="1.67" class="l">fetch</text><text x="32.064" y="1.67" class="g">dataone:doi:10.18739/A26336</text></symbol><symbol id="32"><text x="2.004" y="1.67" class="k">omicsdi</text><text x="14.028" y="1.67" class="g">omics</text><text x="25.05" y="1.67" class="m">per-repo</text><text x="35.07" y="1.67" class="g">omicsdi:pride:PXD000001</text></symbol><symbol id="33"><text x="2.004" y="1.67" class="k">dandi</text><text x="14.028" y="1.67" class="g">omics</text><text x="25.05" y="1.67" class="l">fetch</text><text x="32.064" y="1.67" class="g">dandi:000004</text></symbol><symbol id="34"><text x="2.004" y="1.67" class="k">openml</text><text x="14.028" y="1.67" class="g">archives</text><text x="25.05" y="1.67" class="l">fetch</text><text x="32.064" y="1.67" class="g">openml:61</text></symbol><symbol id="35"><text x="2.004" y="1.67" class="k">pdb</text><text x="14.028" y="1.67" class="g">archives</text><text x="25.05" y="1.67" class="l">fetch</text><text x="32.064" y="1.67" class="g">pdb:1BG2</text></symbol><symbol id="36"><text x="2.004" y="1.67" class="k">gwas</text><text x="14.028" y="1.67" class="g">omics</text><text x="25.05" y="1.67" class="g">discover</text><text x="35.07" y="1.67" class="g">gwas:GCST000028</text></symbol><symbol id="37"><text x="2.004" y="1.67" class="k">cellxgene</text><text x="14.028" y="1.67" class="g">omics</text><text x="25.05" y="1.67" class="l">fetch</text><text x="32.064" y="1.67" class="g">cellxgene:col-lung-1</text></symbol><symbol id="a"><path fill="transparent" d="M0 0h92v35H0z"/></symbol><symbol id="b"><path fill="#6f7683" d="M0 0h1.102v2.171H0z"/></symbol></defs><path class="a" d="M0 0h92v73.814H0z"/><g style="animation-duration:9.895021s;animation-iteration-count:infinite;animation-name:p;animation-timing-function:steps(1,end)"><svg width="5980"><svg><use xlink:href="#a"/><use xlink:href="#b" x="-.004"/></svg><svg x="92"><use xlink:href="#a"/><use xlink:href="#b" x="79.996"/><use xlink:href="#1"/></svg><svg x="184"><use xlink:href="#a"/><use xlink:href="#b" x="79.996"/><use xlink:href="#2"/></svg><svg x="276"><use xlink:href="#a"/><use xlink:href="#b" x="-.004"/></svg><svg x="368"><use xlink:href="#a"/><use xlink:href="#b" x="79.996"/><use xlink:href="#1"/></svg><svg x="460"><use xlink:href="#a"/><use xlink:href="#b" x="79.996"/><use xlink:href="#2"/></svg><svg x="552"><use xlink:href="#a"/><use xlink:href="#b" x="-.004"/></svg><svg x="644"><use xlink:href="#a"/><use xlink:href="#b" x="79.996"/><use xlink:href="#1"/></svg><svg x="736"><use xlink:href="#a"/><use xlink:href="#b" x="79.996"/><use xlink:href="#2"/></svg><svg x="828"><use xlink:href="#a"/><use xlink:href="#b" x="79.996"/><use xlink:href="#3"/></svg><svg x="920"><use xlink:href="#a"/><use xlink:href="#b" x="79.996"/><use xlink:href="#3"/></svg><svg x="1012"><use xlink:href="#a"/><use xlink:href="#b" x="79.996"/><use xlink:href="#3"/></svg><svg x="1104"><use xlink:href="#a"/><use xlink:href="#b" x="79.996"/><text y="1.67" class="f">⠙</text><text x="2.004" y="1.67" class="g">httpx==0.28.1</text></svg><svg x="1196"><use xlink:href="#a"/><use xlink:href="#b" x="79.996"/><text y="1.67" class="f">⠙</text><text x="2.004" y="1.67" class="g">mcp==1.27.1</text></svg><svg x="1288"><use xlink:href="#a"/><use xlink:href="#b" x="79.996"/><text y="1.67" class="f">⠙</text><text x="2.004" y="1.67" class="g">pydantic==2.13.4</text></svg><svg x="1380"><use xlink:href="#a"/><use xlink:href="#b" x="79.996"/><text y="1.67" class="f">⠹</text><text x="2.004" y="1.67" class="g">pydantic==2.13.4</text></svg><svg x="1472"><use xlink:href="#a"/><use xlink:href="#b" x="79.996"/><text y="1.67" class="f">⠹</text><text x="2.004" y="1.67" class="g">pydantic-core==2.46.4</text></svg><svg x="1564"><use xlink:href="#a"/><use xlink:href="#b" x="79.996"/><text y="1.67" class="f">⠹</text><text x="2.004" y="1.67" class="g">jsonschema==4.26.0</text></svg><svg x="1656"><use xlink:href="#a"/><use xlink:href="#b" x="79.996"/><text y="1.67" class="f">⠹</text><text x="2.004" y="1.67" class="g">mypy==2.1.0</text></svg><svg x="1748"><use xlink:href="#a"/><use xlink:href="#b" x="79.996"/><text y="1.67" class="f">⠹</text><text x="2.004" y="1.67" class="g">pytest==9.0.3</text></svg><svg x="1840"><use xlink:href="#a"/><use xlink:href="#b" x="79.996"/><text y="1.67" class="f">⠹</text><text x="2.004" y="1.67" class="g">pytest-httpx==0.36.2</text></svg><svg x="1932"><use xlink:href="#a"/><use xlink:href="#b" x="79.996"/><text y="1.67" class="f">⠹</text><text x="2.004" y="1.67" class="g">aiohttp==3.14.0</text></svg><svg x="2024"><use xlink:href="#a"/><use xlink:href="#b" x="79.996"/><text y="1.67" class="f">⠹</text><text x="2.004" y="1.67" class="g">httpcore==1.0.9</text></svg><svg x="2116"><use xlink:href="#a"/><use xlink:href="#b" x="79.996"/><text y="1.67" class="f">⠹</text><text x="2.004" y="1.67" class="g">attrs==26.1.0</text></svg><svg x="2208"><use xlink:href="#a"/><use xlink:href="#b" x="79.996"/><text y="1.67" class="f">⠹</text><text x="2.004" y="1.67" class="g">cffi==2.0.0</text></svg><svg x="2300"><use xlink:href="#a"/><use xlink:href="#b" x="79.996"/><text y="1.67" class="f">⠹</text><text x="2.004" y="1.67" class="g">pycparser==3.0</text></svg><svg x="2392"><use xlink:href="#a"/><use xlink:href="#b" x="-.004"/></svg><svg x="2484"><use xlink:href="#a"/><use xlink:href="#b" x="79.996"/><text y="1.67" class="f">⠋</text><text x="2.004" y="1.67" class="g">Preparing</text><text x="12.024" y="1.67" class="g">packages...</text><text x="24.048" y="1.67" class="g">(0/1)</text></svg><svg x="2576"><use xlink:href="#a"/><use xlink:href="#b" x="79.996"/><use xlink:href="#4"/></svg><svg x="2668"><use xlink:href="#a"/><use xlink:href="#b" x="79.996" y="2.146"/><use xlink:href="#5"/><use xlink:href="#4" y="2.171"/></svg><svg x="2760"><use xlink:href="#a"/><use xlink:href="#b" x="79.996" y="2.146"/><use xlink:href="#5"/><text y="3.841" class="f">⠹</text><text x="2.004" y="3.841" class="g">Preparing</text><text x="12.024" y="3.841" class="g">packages...</text><text x="24.048" y="3.841" class="g">(0/1)</text></svg><svg x="2852"><use xlink:href="#a"/><use xlink:href="#b" x="79.996" y="2.146"/><use xlink:href="#5"/><use xlink:href="#6" y="2.171"/></svg><svg x="2944"><use xlink:href="#a"/><use xlink:href="#b" x="79.996" y="2.146"/><use xlink:href="#7"/><use xlink:href="#6" y="2.171"/></svg><svg x="3036"><use xlink:href="#a"/><use xlink:href="#b" x="-.004" y="2.146"/><use xlink:href="#7"/></svg><svg x="3128"><use xlink:href="#a"/><use xlink:href="#b" x="-.004" y="4.317"/><use xlink:href="#7"/><use xlink:href="#8" y="2.171"/></svg><svg x="3220"><use xlink:href="#a"/><use xlink:href="#b" x="79.996" y="4.317"/><use xlink:href="#7"/><use xlink:href="#8" y="2.171"/><text y="6.012" class="g">░░░░░░░░░░░░░░░░░░░░</text><text x="21.042" y="6.012" class="g">[0/1]</text><text x="27.054" y="6.012" class="g">Installing</text><text x="38.076" y="6.012" class="g">wheels...</text></svg><svg x="3312"><use xlink:href="#a"/><use xlink:href="#b" x="-.004" y="6.488"/><use xlink:href="#7"/><use xlink:href="#8" y="2.171"/><use xlink:href="#9" y="4.342"/></svg><svg x="3404"><use xlink:href="#a"/><use xlink:href="#b" x="-.004" y="10.83"/><use xlink:href="#7"/><use xlink:href="#8" y="2.171"/><use xlink:href="#9" y="4.342"/><use xlink:href="#10" y="6.513"/></svg><svg x="3496"><use xlink:href="#a"/><use xlink:href="#b" x="-.004" y="13.001"/><use xlink:href="#7"/><use xlink:href="#8" y="2.171"/><use xlink:href="#9" y="4.342"/><use xlink:href="#10" y="6.513"/><use xlink:href="#11" y="10.855"/></svg><svg x="3588"><use xlink:href="#a"/><use xlink:href="#b" x="-.004" y="15.172"/><use xlink:href="#7"/><use xlink:href="#8" y="2.171"/><use xlink:href="#9" y="4.342"/><use xlink:href="#10" y="6.513"/><use xlink:href="#11" y="10.855"/><use xlink:href="#12" y="13.026"/></svg><svg x="3680"><use xlink:href="#a"/><use xlink:href="#b" x="-.004" y="17.343"/><use xlink:href="#7"/><use xlink:href="#8" y="2.171"/><use xlink:href="#9" y="4.342"/><use xlink:href="#10" y="6.513"/><use xlink:href="#11" y="10.855"/><use xlink:href="#12" y="13.026"/><use xlink:href="#13" y="15.197"/></svg><svg x="3772"><use xlink:href="#a"/><use xlink:href="#b" x="-.004" y="21.685"/><use xlink:href="#7"/><use xlink:href="#8" y="2.171"/><use xlink:href="#9" y="4.342"/><use xlink:href="#10" y="6.513"/><use xlink:href="#11" y="10.855"/><use xlink:href="#12" y="13.026"/><use xlink:href="#13" y="15.197"/><use xlink:href="#14" y="19.539"/></svg><svg x="3864"><use xlink:href="#a"/><use xlink:href="#b" x="-.004" y="23.856"/><use xlink:href="#7"/><use xlink:href="#8" y="2.171"/><use xlink:href="#9" y="4.342"/><use xlink:href="#10" y="6.513"/><use xlink:href="#11" y="10.855"/><use xlink:href="#12" y="13.026"/><use xlink:href="#13" y="15.197"/><use xlink:href="#14" y="19.539"/><use xlink:href="#15" y="21.71"/></svg><svg x="3956"><use xlink:href="#a"/><use xlink:href="#b" x="-.004" y="26.027"/><use xlink:href="#7"/><use xlink:href="#8" y="2.171"/><use xlink:href="#9" y="4.342"/><use xlink:href="#10" y="6.513"/><use xlink:href="#11" y="10.855"/><use xlink:href="#12" y="13.026"/><use xlink:href="#13" y="15.197"/><use xlink:href="#14" y="19.539"/><use xlink:href="#15" y="21.71"/><use xlink:href="#16" y="23.881"/></svg><svg x="4048"><use xlink:href="#a"/><use xlink:href="#b" x="-.004" y="28.198"/><use xlink:href="#7"/><use xlink:href="#8" y="2.171"/><use xlink:href="#9" y="4.342"/><use xlink:href="#10" y="6.513"/><use xlink:href="#11" y="10.855"/><use xlink:href="#12" y="13.026"/><use xlink:href="#13" y="15.197"/><use xlink:href="#14" y="19.539"/><use xlink:href="#15" y="21.71"/><use xlink:href="#16" y="23.881"/><use xlink:href="#17" y="26.052"/></svg><svg x="4140"><use xlink:href="#a"/><use xlink:href="#b" x="-.004" y="30.369"/><use xlink:href="#7"/><use xlink:href="#8" y="2.171"/><use xlink:href="#9" y="4.342"/><use xlink:href="#10" y="6.513"/><use xlink:href="#11" y="10.855"/><use xlink:href="#12" y="13.026"/><use xlink:href="#13" y="15.197"/><use xlink:href="#14" y="19.539"/><use xlink:href="#15" y="21.71"/><use xlink:href="#16" y="23.881"/><use xlink:href="#17" y="26.052"/><use xlink:href="#18" y="28.223"/></svg><svg x="4232"><use xlink:href="#a"/><use xlink:href="#b" x="-.004" y="32.54"/><use xlink:href="#7"/><use xlink:href="#8" y="2.171"/><use xlink:href="#9" y="4.342"/><use xlink:href="#10" y="6.513"/><use xlink:href="#11" y="10.855"/><use xlink:href="#12" y="13.026"/><use xlink:href="#13" y="15.197"/><use xlink:href="#14" y="19.539"/><use xlink:href="#15" y="21.71"/><use xlink:href="#16" y="23.881"/><use xlink:href="#17" y="26.052"/><use xlink:href="#18" y="28.223"/><use xlink:href="#19" y="30.394"/></svg><svg x="4324"><use xlink:href="#a"/><use xlink:href="#b" x="-.004" y="34.711"/><use xlink:href="#7"/><use xlink:href="#8" y="2.171"/><use xlink:href="#9" y="4.342"/><use xlink:href="#10" y="6.513"/><use xlink:href="#11" y="10.855"/><use xlink:href="#12" y="13.026"/><use xlink:href="#13" y="15.197"/><use xlink:href="#14" y="19.539"/><use xlink:href="#15" y="21.71"/><use xlink:href="#16" y="23.881"/><use xlink:href="#17" y="26.052"/><use xlink:href="#18" y="28.223"/><use xlink:href="#19" y="30.394"/><use xlink:href="#20" y="32.565"/></svg><svg x="4416"><use xlink:href="#a"/><use xlink:href="#b" x="-.004" y="36.882"/><use xlink:href="#7"/><use xlink:href="#8" y="2.171"/><use xlink:href="#9" y="4.342"/><use xlink:href="#10" y="6.513"/><use xlink:href="#11" y="10.855"/><use xlink:href="#12" y="13.026"/><use xlink:href="#13" y="15.197"/><use xlink:href="#14" y="19.539"/><use xlink:href="#15" y="21.71"/><use xlink:href="#16" y="23.881"/><use xlink:href="#17" y="26.052"/><use xlink:href="#18" y="28.223"/><use xlink:href="#19" y="30.394"/><use xlink:href="#20" y="32.565"/><use xlink:href="#21" y="34.736"/></svg><svg x="4508"><use xlink:href="#a"/><use xlink:href="#b" x="-.004" y="41.224"/><use xlink:href="#7"/><use xlink:href="#8" y="2.171"/><use xlink:href="#9" y="4.342"/><use xlink:href="#10" y="6.513"/><use xlink:href="#11" y="10.855"/><use xlink:href="#12" y="13.026"/><use xlink:href="#13" y="15.197"/><use xlink:href="#14" y="19.539"/><use xlink:href="#15" y="21.71"/><use xlink:href="#16" y="23.881"/><use xlink:href="#17" y="26.052"/><use xlink:href="#18" y="28.223"/><use xlink:href="#19" y="30.394"/><use xlink:href="#20" y="32.565"/><use xlink:href="#21" y="34.736"/><use xlink:href="#22" y="39.078"/></svg><svg x="4600"><use xlink:href="#a"/><use xlink:href="#b" x="-.004" y="43.395"/><use xlink:href="#7"/><use xlink:href="#8" y="2.171"/><use xlink:href="#9" y="4.342"/><use xlink:href="#10" y="6.513"/><use xlink:href="#11" y="10.855"/><use xlink:href="#12" y="13.026"/><use xlink:href="#13" y="15.197"/><use xlink:href="#14" y="19.539"/><use xlink:href="#15" y="21.71"/><use xlink:href="#16" y="23.881"/><use xlink:href="#17" y="26.052"/><use xlink:href="#18" y="28.223"/><use xlink:href="#19" y="30.394"/><use xlink:href="#20" y="32.565"/><use xlink:href="#21" y="34.736"/><use xlink:href="#22" y="39.078"/><use xlink:href="#23" y="41.249"/></svg><svg x="4692"><use xlink:href="#a"/><use xlink:href="#b" x="-.004" y="45.566"/><use xlink:href="#7"/><use xlink:href="#8" y="2.171"/><use xlink:href="#9" y="4.342"/><use xlink:href="#10" y="6.513"/><use xlink:href="#11" y="10.855"/><use xlink:href="#12" y="13.026"/><use xlink:href="#13" y="15.197"/><use xlink:href="#14" y="19.539"/><use xlink:href="#15" y="21.71"/><use xlink:href="#16" y="23.881"/><use xlink:href="#17" y="26.052"/><use xlink:href="#18" y="28.223"/><use xlink:href="#19" y="30.394"/><use xlink:href="#20" y="32.565"/><use xlink:href="#21" y="34.736"/><use xlink:href="#22" y="39.078"/><use xlink:href="#23" y="41.249"/><use xlink:href="#24" y="43.42"/></svg><svg x="4784"><use xlink:href="#a"/><use xlink:href="#b" x="-.004" y="47.737"/><use xlink:href="#7"/><use xlink:href="#8" y="2.171"/><use xlink:href="#9" y="4.342"/><use xlink:href="#10" y="6.513"/><use xlink:href="#11" y="10.855"/><use xlink:href="#12" y="13.026"/><use xlink:href="#13" y="15.197"/><use xlink:href="#14" y="19.539"/><use xlink:href="#15" y="21.71"/><use xlink:href="#16" y="23.881"/><use xlink:href="#17" y="26.052"/><use xlink:href="#18" y="28.223"/><use xlink:href="#19" y="30.394"/><use xlink:href="#20" y="32.565"/><use xlink:href="#21" y="34.736"/><use xlink:href="#22" y="39.078"/><use xlink:href="#23" y="41.249"/><use xlink:href="#24" y="43.42"/><use xlink:href="#25" y="45.591"/></svg><svg x="4876"><use xlink:href="#a"/><use xlink:href="#b" x="-.004" y="49.908"/><use xlink:href="#7"/><use xlink:href="#8" y="2.171"/><use xlink:href="#9" y="4.342"/><use xlink:href="#10" y="6.513"/><use xlink:href="#11" y="10.855"/><use xlink:href="#12" y="13.026"/><use xlink:href="#13" y="15.197"/><use xlink:href="#14" y="19.539"/><use xlink:href="#15" y="21.71"/><use xlink:href="#16" y="23.881"/><use xlink:href="#17" y="26.052"/><use xlink:href="#18" y="28.223"/><use xlink:href="#19" y="30.394"/><use xlink:href="#20" y="32.565"/><use xlink:href="#21" y="34.736"/><use xlink:href="#22" y="39.078"/><use xlink:href="#23" y="41.249"/><use xlink:href="#24" y="43.42"/><use xlink:href="#25" y="45.591"/><use xlink:href="#26" y="47.762"/></svg><svg x="4968"><use xlink:href="#a"/><use xlink:href="#b" x="-.004" y="54.25"/><use xlink:href="#7"/><use xlink:href="#8" y="2.171"/><use xlink:href="#9" y="4.342"/><use xlink:href="#10" y="6.513"/><use xlink:href="#11" y="10.855"/><use xlink:href="#12" y="13.026"/><use xlink:href="#13" y="15.197"/><use xlink:href="#14" y="19.539"/><use xlink:href="#15" y="21.71"/><use xlink:href="#16" y="23.881"/><use xlink:href="#17" y="26.052"/><use xlink:href="#18" y="28.223"/><use xlink:href="#19" y="30.394"/><use xlink:href="#20" y="32.565"/><use xlink:href="#21" y="34.736"/><use xlink:href="#22" y="39.078"/><use xlink:href="#23" y="41.249"/><use xlink:href="#24" y="43.42"/><use xlink:href="#25" y="45.591"/><use xlink:href="#26" y="47.762"/><use xlink:href="#27" y="49.933"/><use xlink:href="#28" y="52.104"/></svg><svg x="5060"><use xlink:href="#a"/><use xlink:href="#b" x="-.004" y="56.421"/><use xlink:href="#7"/><use xlink:href="#8" y="2.171"/><use xlink:href="#9" y="4.342"/><use xlink:href="#10" y="6.513"/><use xlink:href="#11" y="10.855"/><use xlink:href="#12" y="13.026"/><use xlink:href="#13" y="15.197"/><use xlink:href="#14" y="19.539"/><use xlink:href="#15" y="21.71"/><use xlink:href="#16" y="23.881"/><use xlink:href="#17" y="26.052"/><use xlink:href="#18" y="28.223"/><use xlink:href="#19" y="30.394"/><use xlink:href="#20" y="32.565"/><use xlink:href="#21" y="34.736"/><use xlink:href="#22" y="39.078"/><use xlink:href="#23" y="41.249"/><use xlink:href="#24" y="43.42"/><use xlink:href="#25" y="45.591"/><use xlink:href="#26" y="47.762"/><use xlink:href="#27" y="49.933"/><use xlink:href="#28" y="52.104"/><use xlink:href="#29" y="54.275"/></svg><svg x="5152"><use xlink:href="#a"/><use xlink:href="#b" x="-.004" y="58.592"/><use xlink:href="#7"/><use xlink:href="#8" y="2.171"/><use xlink:href="#9" y="4.342"/><use xlink:href="#10" y="6.513"/><use xlink:href="#11" y="10.855"/><use xlink:href="#12" y="13.026"/><use xlink:href="#13" y="15.197"/><use xlink:href="#14" y="19.539"/><use xlink:href="#15" y="21.71"/><use xlink:href="#16" y="23.881"/><use xlink:href="#17" y="26.052"/><use xlink:href="#18" y="28.223"/><use xlink:href="#19" y="30.394"/><use xlink:href="#20" y="32.565"/><use xlink:href="#21" y="34.736"/><use xlink:href="#22" y="39.078"/><use xlink:href="#23" y="41.249"/><use xlink:href="#24" y="43.42"/><use xlink:href="#25" y="45.591"/><use xlink:href="#26" y="47.762"/><use xlink:href="#27" y="49.933"/><use xlink:href="#28" y="52.104"/><use xlink:href="#29" y="54.275"/><use xlink:href="#30" y="56.446"/></svg><svg x="5244"><use xlink:href="#a"/><use xlink:href="#b" x="-.004" y="60.763"/><use xlink:href="#7"/><use xlink:href="#8" y="2.171"/><use xlink:href="#9" y="4.342"/><use xlink:href="#10" y="6.513"/><use xlink:href="#11" y="10.855"/><use xlink:href="#12" y="13.026"/><use xlink:href="#13" y="15.197"/><use xlink:href="#14" y="19.539"/><use xlink:href="#15" y="21.71"/><use xlink:href="#16" y="23.881"/><use xlink:href="#17" y="26.052"/><use xlink:href="#18" y="28.223"/><use xlink:href="#19" y="30.394"/><use xlink:href="#20" y="32.565"/><use xlink:href="#21" y="34.736"/><use xlink:href="#22" y="39.078"/><use xlink:href="#23" y="41.249"/><use xlink:href="#24" y="43.42"/><use xlink:href="#25" y="45.591"/><use xlink:href="#26" y="47.762"/><use xlink:href="#27" y="49.933"/><use xlink:href="#28" y="52.104"/><use xlink:href="#29" y="54.275"/><use xlink:href="#30" y="56.446"/><use xlink:href="#31" y="58.617"/></svg><svg x="5336"><use xlink:href="#a"/><use xlink:href="#b" x="-.004" y="62.934"/><use xlink:href="#7"/><use xlink:href="#8" y="2.171"/><use xlink:href="#9" y="4.342"/><use xlink:href="#10" y="6.513"/><use xlink:href="#11" y="10.855"/><use xlink:href="#12" y="13.026"/><use xlink:href="#13" y="15.197"/><use xlink:href="#14" y="19.539"/><use xlink:href="#15" y="21.71"/><use xlink:href="#16" y="23.881"/><use xlink:href="#17" y="26.052"/><use xlink:href="#18" y="28.223"/><use xlink:href="#19" y="30.394"/><use xlink:href="#20" y="32.565"/><use xlink:href="#21" y="34.736"/><use xlink:href="#22" y="39.078"/><use xlink:href="#23" y="41.249"/><use xlink:href="#24" y="43.42"/><use xlink:href="#25" y="45.591"/><use xlink:href="#26" y="47.762"/><use xlink:href="#27" y="49.933"/><use xlink:href="#28" y="52.104"/><use xlink:href="#29" y="54.275"/><use xlink:href="#30" y="56.446"/><use xlink:href="#31" y="58.617"/><use xlink:href="#32" y="60.788"/></svg><svg x="5428"><use xlink:href="#a"/><use xlink:href="#b" x="-.004" y="65.105"/><use xlink:href="#7"/><use xlink:href="#8" y="2.171"/><use xlink:href="#9" y="4.342"/><use xlink:href="#10" y="6.513"/><use xlink:href="#11" y="10.855"/><use xlink:href="#12" y="13.026"/><use xlink:href="#13" y="15.197"/><use xlink:href="#14" y="19.539"/><use xlink:href="#15" y="21.71"/><use xlink:href="#16" y="23.881"/><use xlink:href="#17" y="26.052"/><use xlink:href="#18" y="28.223"/><use xlink:href="#19" y="30.394"/><use xlink:href="#20" y="32.565"/><use xlink:href="#21" y="34.736"/><use xlink:href="#22" y="39.078"/><use xlink:href="#23" y="41.249"/><use xlink:href="#24" y="43.42"/><use xlink:href="#25" y="45.591"/><use xlink:href="#26" y="47.762"/><use xlink:href="#27" y="49.933"/><use xlink:href="#28" y="52.104"/><use xlink:href="#29" y="54.275"/><use xlink:href="#30" y="56.446"/><use xlink:href="#31" y="58.617"/><use xlink:href="#32" y="60.788"/><use xlink:href="#33" y="62.959"/></svg><svg x="5520"><use xlink:href="#a"/><use xlink:href="#b" x="-.004" y="67.276"/><use xlink:href="#7"/><use xlink:href="#8" y="2.171"/><use xlink:href="#9" y="4.342"/><use xlink:href="#10" y="6.513"/><use xlink:href="#11" y="10.855"/><use xlink:href="#12" y="13.026"/><use xlink:href="#13" y="15.197"/><use xlink:href="#14" y="19.539"/><use xlink:href="#15" y="21.71"/><use xlink:href="#16" y="23.881"/><use xlink:href="#17" y="26.052"/><use xlink:href="#18" y="28.223"/><use xlink:href="#19" y="30.394"/><use xlink:href="#20" y="32.565"/><use xlink:href="#21" y="34.736"/><use xlink:href="#22" y="39.078"/><use xlink:href="#23" y="41.249"/><use xlink:href="#24" y="43.42"/><use xlink:href="#25" y="45.591"/><use xlink:href="#26" y="47.762"/><use xlink:href="#27" y="49.933"/><use xlink:href="#28" y="52.104"/><use xlink:href="#29" y="54.275"/><use xlink:href="#30" y="56.446"/><use xlink:href="#31" y="58.617"/><use xlink:href="#32" y="60.788"/><use xlink:href="#33" y="62.959"/><use xlink:href="#34" y="65.13"/></svg><svg x="5612"><use xlink:href="#a"/><use xlink:href="#b" x="-.004" y="69.447"/><use xlink:href="#7"/><use xlink:href="#8" y="2.171"/><use xlink:href="#9" y="4.342"/><use xlink:href="#10" y="6.513"/><use xlink:href="#11" y="10.855"/><use xlink:href="#12" y="13.026"/><use xlink:href="#13" y="15.197"/><use xlink:href="#14" y="19.539"/><use xlink:href="#15" y="21.71"/><use xlink:href="#16" y="23.881"/><use xlink:href="#17" y="26.052"/><use xlink:href="#18" y="28.223"/><use xlink:href="#19" y="30.394"/><use xlink:href="#20" y="32.565"/><use xlink:href="#21" y="34.736"/><use xlink:href="#22" y="39.078"/><use xlink:href="#23" y="41.249"/><use xlink:href="#24" y="43.42"/><use xlink:href="#25" y="45.591"/><use xlink:href="#26" y="47.762"/><use xlink:href="#27" y="49.933"/><use xlink:href="#28" y="52.104"/><use xlink:href="#29" y="54.275"/><use xlink:href="#30" y="56.446"/><use xlink:href="#31" y="58.617"/><use xlink:href="#32" y="60.788"/><use xlink:href="#33" y="62.959"/><use xlink:href="#34" y="65.13"/><use xlink:href="#35" y="67.301"/></svg><svg x="5704"><use xlink:href="#a"/><use xlink:href="#b" x="-.004" y="71.618"/><use xlink:href="#7"/><use xlink:href="#8" y="2.171"/><use xlink:href="#9" y="4.342"/><use xlink:href="#10" y="6.513"/><use xlink:href="#11" y="10.855"/><use xlink:href="#12" y="13.026"/><use xlink:href="#13" y="15.197"/><use xlink:href="#14" y="19.539"/><use xlink:href="#15" y="21.71"/><use xlink:href="#16" y="23.881"/><use xlink:href="#17" y="26.052"/><use xlink:href="#18" y="28.223"/><use xlink:href="#19" y="30.394"/><use xlink:href="#20" y="32.565"/><use xlink:href="#21" y="34.736"/><use xlink:href="#22" y="39.078"/><use xlink:href="#23" y="41.249"/><use xlink:href="#24" y="43.42"/><use xlink:href="#25" y="45.591"/><use xlink:href="#26" y="47.762"/><use xlink:href="#27" y="49.933"/><use xlink:href="#28" y="52.104"/><use xlink:href="#29" y="54.275"/><use xlink:href="#30" y="56.446"/><use xlink:href="#31" y="58.617"/><use xlink:href="#32" y="60.788"/><use xlink:href="#33" y="62.959"/><use xlink:href="#34" y="65.13"/><use xlink:href="#35" y="67.301"/><use xlink:href="#36" y="69.472"/></svg><svg x="5796"><use xlink:href="#a"/><use xlink:href="#b" x="-.004" y="73.789"/><use xlink:href="#7"/><use xlink:href="#8" y="2.171"/><use xlink:href="#9" y="4.342"/><use xlink:href="#10" y="6.513"/><use xlink:href="#11" y="10.855"/><use xlink:href="#12" y="13.026"/><use xlink:href="#13" y="15.197"/><use xlink:href="#14" y="19.539"/><use xlink:href="#15" y="21.71"/><use xlink:href="#16" y="23.881"/><use xlink:href="#17" y="26.052"/><use xlink:href="#18" y="28.223"/><use xlink:href="#19" y="30.394"/><use xlink:href="#20" y="32.565"/><use xlink:href="#21" y="34.736"/><use xlink:href="#22" y="39.078"/><use xlink:href="#23" y="41.249"/><use xlink:href="#24" y="43.42"/><use xlink:href="#25" y="45.591"/><use xlink:href="#26" y="47.762"/><use xlink:href="#27" y="49.933"/><use xlink:href="#28" y="52.104"/><use xlink:href="#29" y="54.275"/><use xlink:href="#30" y="56.446"/><use xlink:href="#31" y="58.617"/><use xlink:href="#32" y="60.788"/><use xlink:href="#33" y="62.959"/><use xlink:href="#34" y="65.13"/><use xlink:href="#35" y="67.301"/><use xlink:href="#36" y="69.472"/><use xlink:href="#37" y="71.643"/></svg><svg x="5888"><use xlink:href="#a"/><use xlink:href="#b" x="-.004" y="73.789"/><use xlink:href="#9"/><use xlink:href="#10" y="2.171"/><use xlink:href="#11" y="6.513"/><use xlink:href="#12" y="8.684"/><use xlink:href="#13" y="10.855"/><use xlink:href="#14" y="15.197"/><use xlink:href="#15" y="17.368"/><use xlink:href="#16" y="19.539"/><use xlink:href="#17" y="21.71"/><use xlink:href="#18" y="23.881"/><use xlink:href="#19" y="26.052"/><use xlink:href="#20" y="28.223"/><use xlink:href="#21" y="30.394"/><use xlink:href="#22" y="34.736"/><use xlink:href="#23" y="36.907"/><use xlink:href="#24" y="39.078"/><use xlink:href="#25" y="41.249"/><use xlink:href="#26" y="43.42"/><use xlink:href="#27" y="45.591"/><use xlink:href="#28" y="47.762"/><use xlink:href="#29" y="49.933"/><use xlink:href="#30" y="52.104"/><use xlink:href="#31" y="54.275"/><use xlink:href="#32" y="56.446"/><use xlink:href="#33" y="58.617"/><use xlink:href="#34" y="60.788"/><use xlink:href="#35" y="62.959"/><use xlink:href="#36" y="65.13"/><use xlink:href="#37" y="67.301"/><text y="73.313" class="i">done.</text></svg></svg></g></g></svg></svg>